<svg t="1606442617720" class="icon" viewBox="0 0 1024 1024" version="1.1" xmlns="http://www.w3.org/2000/svg" p-id="3945" width="200" height="200"><path d="M743.489263 991.319163V637.610105c-25.050951 10.235638-52.274088 15.57133-80.037549 15.571329-51.199978 0-99.195056-17.909099-135.111295-49.260915v148.242456c0 9.026447-7.313971 16.340419-16.340419 16.340419a16.340419 16.340419 0 0 1-16.340419-16.340419V603.920519c-35.914061 31.353995-83.909139 49.260915-135.111295 49.260915-27.763461 0-54.988777-5.335691-80.037549-15.571329V991.319163h215.148844v-173.794513a16.340419 16.340419 0 0 1 16.340419-16.340419c9.026447 0 16.340419 7.313971 16.340419 16.340419V991.319163h215.148844z" fill="#6DA8D6" p-id="3946"></path><path d="M433.247897 247.830118h157.504206L512 58.825943z" fill="#274B6D" p-id="3947"></path><path d="M360.548286 620.502776c56.46595 0 108.082065-25.538985 138.072179-68.316022a16.342597 16.342597 0 0 1 26.75907 0c29.992294 42.779216 81.606229 68.316022 138.072179 68.316022 26.510695 0 52.380846-5.740934 75.638709-16.658512L604.369118 280.510955h-184.738236l-134.721305 323.33113c23.260041 10.919757 49.128013 16.660691 75.638709 16.660691z" fill="#FFCC75" p-id="3948"></path><path d="M776.167922 611.071086l-0.006537-0.130723a16.301202 16.301202 0 0 0-1.248408-6.093887L630.367813 257.93939l-0.095863-0.228766-103.188654-247.655384a16.340419 16.340419 0 0 0-30.166592 0l-103.197369 247.674992-0.076255 0.183013-144.556057 346.933231a16.312095 16.312095 0 0 0-1.248408 6.111317c-0.008715 0.174298-0.008715 396.701789-0.008715 396.701788a16.340419 16.340419 0 0 0 16.340418 16.340419h495.659364c9.026447 0 16.340419-7.313971 16.340418-16.340419l-0.002178-396.588495zM512 801.184231a16.340419 16.340419 0 0 0-16.340419 16.340419V991.319163h-215.148844V637.610105c25.050951 10.235638 52.274088 15.57133 80.037549 15.571329 51.202157 0 99.197234-17.909099 135.111295-49.260915v148.242456a16.340419 16.340419 0 0 0 16.340419 16.340419c9.026447 0 16.340419-7.313971 16.340419-16.340419V603.920519c35.91624 31.353995 83.911317 49.260915 135.111295 49.260915 27.763461 0 54.988777-5.335691 80.037549-15.571329V991.319163H528.340419v-173.794513a16.340419 16.340419 0 0 0-16.340419-16.340419zM419.630882 280.510955h184.738236l134.721305 323.33113c-23.260041 10.919757-49.128013 16.658512-75.638709 16.658512-56.46595 0-108.079886-25.538985-138.072179-68.316022a16.336061 16.336061 0 0 0-26.75907 0c-29.990115 42.779216-81.606229 68.316022-138.072179 68.316022-26.510695 0-52.378667-5.740934-75.638709-16.658512l134.721305-323.33113z m13.617015-32.680837L512 58.825943l78.752103 189.004175h-157.504206z" fill="#082947" p-id="3949"></path></svg>
